<svg width="128" height="128" viewBox="0 0 128 128" fill="none" xmlns="http://www.w3.org/2000/svg">
<path d="M91.125 10.4C74.375 11.7 61.075 15.2 48.225 21.65C40.05 25.775 34.25 29.7 27.075 36.05C17.325 44.65 12.075 54.875 10.975 67.375C10.1 77.05 12.925 87.7 18.625 96.25C20.475 99.025 23.725 102.875 24 102.575C24.1 102.475 24.65 101.025 25.25 99.375C27.375 93.425 31 86.1 34.1 81.4C39.925 72.65 50.825 62.1 59.625 56.75C61.675 55.5 65.75 53.425 65.9 53.55C65.95 53.6 63.775 56.975 61.05 61.075C51.975 74.725 50.525 77.175 43.75 90.25C40.2 97.125 34.25 110.025 34.25 110.875C34.25 111.1 37.125 112.575 39.625 113.575C45.375 115.925 51 117.025 57.375 117.025C71.675 117.025 83.15 111.5 92.625 100C98.05 93.425 101.55 86.35 102.975 79.125C103.65 75.7 103.95 72.425 104.375 63.4C104.8 54.575 105.225 50.15 106.125 45C107.8 35.5 111.4 24.375 115.925 14.775C116.825 12.8 117.175 11.85 116.975 11.725C116.675 11.55 115.8 11.4 111.125 10.85C108.25 10.5 93.975 10.175 91.125 10.4Z" fill="#41B619"/>
</svg>
