<svg width="128" height="65" viewBox="0 0 128 65" fill="none" xmlns="http://www.w3.org/2000/svg">
<g filter="url(#filter0_d_118_3314)">
<circle cx="32.7143" cy="27.7143" r="20.7143" fill="#F9F9F9"/>
</g>
<g filter="url(#filter1_d_118_3314)">
<circle cx="32.714" cy="27.7142" r="16.5714" fill="#F9F9F9"/>
</g>
<path d="M64.1835 13.7921C65.6124 13.7921 66.8423 14.0867 67.8734 14.676C68.9046 15.2652 69.7 16.1269 70.2597 17.2611C70.8195 18.3806 71.0993 19.78 71.0993 21.4592C71.0993 23.2415 70.7606 24.7514 70.083 25.9887C69.4201 27.2261 68.4995 28.1688 67.3211 28.8169C66.1426 29.465 64.7727 29.7891 63.2113 29.7891C62.4012 29.7891 61.6205 29.7007 60.8692 29.524C60.118 29.3472 59.4699 29.0821 58.9249 28.7285L60.2506 26.0992C60.6778 26.3938 61.1344 26.6 61.6205 26.7179C62.1066 26.821 62.6148 26.8725 63.1451 26.8725C64.4708 26.8725 65.524 26.4674 66.3047 25.6573C67.1001 24.8471 67.4978 23.6466 67.4978 22.0558C67.4978 21.7906 67.4905 21.496 67.4757 21.172C67.461 20.8479 67.4242 20.5238 67.3652 20.1998L68.3374 21.1278C68.087 21.7022 67.7335 22.1883 67.2769 22.5861C66.8202 22.969 66.2899 23.2636 65.686 23.4699C65.0821 23.6614 64.4045 23.7571 63.6532 23.7571C62.6663 23.7571 61.7678 23.5582 60.9576 23.1605C60.1622 22.7628 59.5214 22.2031 59.0353 21.4813C58.564 20.7595 58.3283 19.9125 58.3283 18.9403C58.3283 17.8798 58.5861 16.9665 59.1016 16.2005C59.6319 15.4346 60.339 14.8454 61.2228 14.4329C62.1213 14.0057 63.1082 13.7921 64.1835 13.7921ZM64.4045 16.4657C63.8889 16.4657 63.4397 16.5614 63.0567 16.7529C62.6737 16.9297 62.3717 17.1948 62.1508 17.5483C61.9298 17.8871 61.8193 18.2922 61.8193 18.7636C61.8193 19.4706 62.055 20.0377 62.5264 20.4649C63.0125 20.8774 63.6532 21.0836 64.4487 21.0836C64.9642 21.0836 65.4209 20.9878 65.8186 20.7963C66.231 20.5901 66.5477 20.3102 66.7687 19.9567C66.9896 19.6032 67.1001 19.2055 67.1001 18.7636C67.1001 18.3217 66.9896 17.9313 66.7687 17.5925C66.5625 17.239 66.2605 16.9665 65.8628 16.775C65.4651 16.5688 64.979 16.4657 64.4045 16.4657ZM78.0752 29.7891C76.9999 29.7891 75.932 29.6492 74.8714 29.3693C73.8256 29.0747 72.927 28.6622 72.1758 28.132L73.5899 25.3921C74.1791 25.8193 74.8567 26.1581 75.6227 26.4085C76.4034 26.6589 77.1914 26.7841 77.9868 26.7841C78.8854 26.7841 79.5924 26.6074 80.108 26.2539C80.6235 25.9003 80.8813 25.4069 80.8813 24.7735C80.8813 24.3758 80.7782 24.0222 80.572 23.7129C80.3658 23.4036 79.9975 23.1679 79.4672 23.0059C78.9517 22.8438 78.2225 22.7628 77.2798 22.7628H73.3247L74.1202 14.0573H83.5548V16.9297H75.4017L77.2577 15.2946L76.7053 21.5034L74.8493 19.8683H78.1194C79.6514 19.8683 80.8813 20.0819 81.8093 20.5091C82.7521 20.9215 83.437 21.4887 83.8642 22.2104C84.2914 22.9322 84.5049 23.7497 84.5049 24.663C84.5049 25.5763 84.2766 26.4233 83.82 27.204C83.3634 27.9699 82.6563 28.596 81.6988 29.0821C80.7561 29.5534 79.5482 29.7891 78.0752 29.7891ZM87.973 29.524L98.5346 14.0573H101.164L90.6024 29.524H87.973ZM89.3208 22.4093C88.5696 22.4093 87.9067 22.2399 87.3323 21.9011C86.7578 21.5476 86.3012 21.0541 85.9624 20.4207C85.6383 19.7726 85.4763 19.014 85.4763 18.1449C85.4763 17.2758 85.6383 16.5246 85.9624 15.8912C86.3012 15.2578 86.7578 14.7643 87.3323 14.4108C87.9067 14.0573 88.5696 13.8805 89.3208 13.8805C90.0721 13.8805 90.7349 14.0573 91.3094 14.4108C91.8839 14.7643 92.3332 15.2578 92.6572 15.8912C92.9813 16.5246 93.1433 17.2758 93.1433 18.1449C93.1433 19.014 92.9813 19.7726 92.6572 20.4207C92.3332 21.0541 91.8839 21.5476 91.3094 21.9011C90.7349 22.2399 90.0721 22.4093 89.3208 22.4093ZM89.3208 20.5975C89.8069 20.5975 90.1973 20.3986 90.4919 20.0009C90.7865 19.5885 90.9338 18.9698 90.9338 18.1449C90.9338 17.32 90.7865 16.7087 90.4919 16.311C90.1973 15.8986 89.8069 15.6923 89.3208 15.6923C88.8495 15.6923 88.4591 15.8986 88.1498 16.311C87.8552 16.7087 87.7079 17.32 87.7079 18.1449C87.7079 18.9551 87.8552 19.5664 88.1498 19.9788C88.4591 20.3913 88.8495 20.5975 89.3208 20.5975ZM99.8161 29.7007C99.0796 29.7007 98.4167 29.5313 97.8275 29.1925C97.253 28.839 96.8038 28.3455 96.4797 27.7121C96.1556 27.064 95.9936 26.3054 95.9936 25.4363C95.9936 24.5673 96.1556 23.816 96.4797 23.1826C96.8038 22.5492 97.253 22.0558 97.8275 21.7022C98.4167 21.3487 99.0796 21.172 99.8161 21.172C100.582 21.172 101.252 21.3487 101.827 21.7022C102.401 22.0558 102.85 22.5492 103.175 23.1826C103.499 23.816 103.661 24.5673 103.661 25.4363C103.661 26.3054 103.499 27.064 103.175 27.7121C102.85 28.3455 102.401 28.839 101.827 29.1925C101.252 29.5313 100.582 29.7007 99.8161 29.7007ZM99.8161 27.8889C100.302 27.8889 100.693 27.6901 100.987 27.2923C101.282 26.8799 101.429 26.2612 101.429 25.4363C101.429 24.6262 101.282 24.0149 100.987 23.6024C100.693 23.19 100.302 22.9838 99.8161 22.9838C99.3447 22.9838 98.9544 23.19 98.645 23.6024C98.3504 24.0001 98.2031 24.6114 98.2031 25.4363C98.2031 26.2612 98.3504 26.8799 98.645 27.2923C98.9544 27.6901 99.3447 27.8889 99.8161 27.8889Z" fill="#41B619"/>
<path d="M59.1156 41.3837C59.4789 41.3837 59.8005 41.3322 60.0804 41.2291C60.3652 41.126 60.5886 40.9836 60.7506 40.8019C60.9127 40.6153 60.9937 40.4017 60.9937 40.1611C60.9937 39.8616 60.8685 39.6259 60.6181 39.4541C60.3677 39.2773 60.024 39.189 59.587 39.189L59.5575 39.3878C59.8128 39.3878 60.0387 39.3461 60.2351 39.2626C60.4364 39.1791 60.5935 39.0637 60.7065 38.9164C60.8243 38.7642 60.8832 38.5948 60.8832 38.4083C60.8832 38.1824 60.8022 37.986 60.6402 37.819C60.4781 37.6521 60.2572 37.5244 59.9773 37.4361C59.6974 37.3477 59.3783 37.3109 59.0199 37.3256C58.7842 37.3305 58.546 37.3649 58.3054 37.4287C58.0698 37.4876 57.8267 37.5735 57.5763 37.6865L57.812 38.3641C58.028 38.2708 58.2392 38.1996 58.4454 38.1505C58.6565 38.1014 58.8603 38.0768 59.0567 38.0768C59.2433 38.0768 59.4028 38.0965 59.5354 38.1357C59.668 38.1701 59.7686 38.2241 59.8374 38.2978C59.911 38.3665 59.9479 38.4475 59.9479 38.5408C59.9479 38.6341 59.9184 38.7151 59.8595 38.7839C59.8005 38.8526 59.7146 38.9042 59.6017 38.9385C59.4937 38.9729 59.3611 38.9901 59.204 38.9901H58.519V39.6088H59.2776C59.528 39.6088 59.7195 39.6505 59.8521 39.734C59.9896 39.8125 60.0583 39.9304 60.0583 40.0875C60.0583 40.1955 60.0166 40.2913 59.9331 40.3747C59.8546 40.4582 59.7416 40.522 59.5943 40.5662C59.447 40.6055 59.2703 40.6251 59.064 40.6251C58.8234 40.6251 58.5829 40.5957 58.3423 40.5368C58.1017 40.4778 57.8856 40.3944 57.6941 40.2863L57.4364 40.9713C57.672 41.1039 57.9347 41.207 58.2244 41.2806C58.519 41.3494 58.8161 41.3837 59.1156 41.3837ZM64.3281 41.3175V40.522L64.2766 40.3526V38.9606C64.2766 38.6906 64.1955 38.4819 64.0335 38.3346C63.8715 38.1824 63.626 38.1063 63.297 38.1063C63.0761 38.1063 62.8576 38.1407 62.6415 38.2094C62.4304 38.2781 62.2512 38.3739 62.1039 38.4966L61.743 37.8264C61.9541 37.6644 62.2045 37.5441 62.4942 37.4655C62.7888 37.3821 63.0932 37.3403 63.4075 37.3403C63.977 37.3403 64.4165 37.4778 64.7258 37.7528C65.0401 38.0228 65.1972 38.4426 65.1972 39.0122V41.3175H64.3281ZM63.0908 41.369C62.7962 41.369 62.5384 41.3199 62.3174 41.2217C62.0965 41.1186 61.9246 40.9787 61.8019 40.8019C61.6841 40.6202 61.6251 40.4165 61.6251 40.1906C61.6251 39.9696 61.6767 39.7708 61.7798 39.594C61.8878 39.4173 62.0621 39.2773 62.3027 39.1742C62.5433 39.0711 62.8625 39.0196 63.2602 39.0196H64.4018V39.6309H63.3265C63.0122 39.6309 62.8011 39.6824 62.6931 39.7855C62.585 39.8837 62.531 40.0065 62.531 40.1538C62.531 40.3207 62.5973 40.4533 62.7299 40.5515C62.8625 40.6497 63.0466 40.6988 63.2823 40.6988C63.5081 40.6988 63.7094 40.6472 63.8862 40.5441C64.0679 40.441 64.198 40.2888 64.2766 40.0875L64.4312 40.6399C64.3428 40.8706 64.1833 41.0499 63.9525 41.1775C63.7266 41.3052 63.4394 41.369 63.0908 41.369ZM68.8332 41.3175V39.977L68.9658 40.1317H67.7873C67.2472 40.1317 66.8225 40.0187 66.5132 39.7929C66.2088 39.5621 66.0566 39.2307 66.0566 38.7986C66.0566 38.3371 66.2186 37.986 66.5426 37.7454C66.8716 37.5048 67.3086 37.3845 67.8536 37.3845H69.6581V41.3175H68.8332ZM66.005 41.3175L67.0656 39.815H68.0083L66.9919 41.3175H66.005ZM68.8332 39.6824V37.9148L68.9658 38.1578H67.8831C67.5983 38.1578 67.3774 38.2119 67.2202 38.3199C67.068 38.423 66.9919 38.5924 66.9919 38.8281C66.9919 39.27 67.2792 39.4909 67.8536 39.4909H68.9658L68.8332 39.6824ZM70.8964 41.3175V37.3845H72.8187C73.295 37.3845 73.6682 37.4729 73.9382 37.6496C74.2132 37.8264 74.3507 38.0768 74.3507 38.4009C74.3507 38.72 74.223 38.9705 73.9677 39.1521C73.7124 39.3289 73.3736 39.4173 72.9513 39.4173L73.0618 39.189C73.5381 39.189 73.8916 39.2773 74.1223 39.4541C74.358 39.6259 74.4759 39.8788 74.4759 40.2127C74.4759 40.5613 74.3458 40.8338 74.0855 41.0302C73.8253 41.2217 73.43 41.3175 72.8997 41.3175H70.8964ZM71.7729 40.6472H72.8261C73.0765 40.6472 73.2655 40.608 73.3932 40.5294C73.5209 40.4459 73.5847 40.3207 73.5847 40.1538C73.5847 39.977 73.5258 39.8469 73.4079 39.7634C73.2901 39.68 73.106 39.6382 72.8556 39.6382H71.7729V40.6472ZM71.7729 39.0269H72.7377C72.9734 39.0269 73.1502 38.9852 73.268 38.9017C73.3908 38.8133 73.4521 38.6906 73.4521 38.5335C73.4521 38.3714 73.3908 38.2511 73.268 38.1726C73.1502 38.094 72.9734 38.0547 72.7377 38.0547H71.7729V39.0269ZM77.2094 41.369C76.8067 41.369 76.4483 41.2831 76.1341 41.1112C75.8198 40.9345 75.5719 40.6939 75.3902 40.3895C75.2085 40.085 75.1177 39.7389 75.1177 39.351C75.1177 38.9582 75.2085 38.612 75.3902 38.3125C75.5719 38.0081 75.8198 37.7699 76.1341 37.5981C76.4483 37.4262 76.8067 37.3403 77.2094 37.3403C77.6169 37.3403 77.9778 37.4262 78.292 37.5981C78.6112 37.7699 78.8591 38.0056 79.0359 38.3051C79.2176 38.6047 79.3084 38.9533 79.3084 39.351C79.3084 39.7389 79.2176 40.085 79.0359 40.3895C78.8591 40.6939 78.6112 40.9345 78.292 41.1112C77.9778 41.2831 77.6169 41.369 77.2094 41.369ZM77.2094 40.581C77.4352 40.581 77.6365 40.5319 77.8133 40.4336C77.9901 40.3354 78.1275 40.1931 78.2257 40.0065C78.3288 39.8199 78.3804 39.6014 78.3804 39.351C78.3804 39.0957 78.3288 38.8772 78.2257 38.6955C78.1275 38.5089 77.9901 38.3665 77.8133 38.2683C77.6365 38.1701 77.4377 38.121 77.2167 38.121C76.9909 38.121 76.7895 38.1701 76.6128 38.2683C76.4409 38.3665 76.3034 38.5089 76.2003 38.6955C76.0972 38.8772 76.0457 39.0957 76.0457 39.351C76.0457 39.6014 76.0972 39.8199 76.2003 40.0065C76.3034 40.1931 76.4409 40.3354 76.6128 40.4336C76.7895 40.5319 76.9884 40.581 77.2094 40.581ZM83.0387 41.3175L81.6172 39.432L82.3685 38.968L84.1214 41.3175H83.0387ZM80.2179 41.3175V37.3845H81.1385V41.3175H80.2179ZM80.866 39.7413V38.9754H82.1991V39.7413H80.866ZM82.4569 39.4615L81.5951 39.3583L83.0387 37.3845H84.0256L82.4569 39.4615ZM88.5591 41.369C88.1564 41.369 87.798 41.2831 87.4838 41.1112C87.1695 40.9345 86.9216 40.6939 86.7399 40.3895C86.5582 40.085 86.4674 39.7389 86.4674 39.351C86.4674 38.9582 86.5582 38.612 86.7399 38.3125C86.9216 38.0081 87.1695 37.7699 87.4838 37.5981C87.798 37.4262 88.1564 37.3403 88.5591 37.3403C88.9666 37.3403 89.3275 37.4262 89.6417 37.5981C89.9609 37.7699 90.2088 38.0056 90.3856 38.3051C90.5673 38.6047 90.6581 38.9533 90.6581 39.351C90.6581 39.7389 90.5673 40.085 90.3856 40.3895C90.2088 40.6939 89.9609 40.9345 89.6417 41.1112C89.3275 41.2831 88.9666 41.369 88.5591 41.369ZM88.5591 40.581C88.7849 40.581 88.9862 40.5319 89.163 40.4336C89.3398 40.3354 89.4772 40.1931 89.5754 40.0065C89.6785 39.8199 89.7301 39.6014 89.7301 39.351C89.7301 39.0957 89.6785 38.8772 89.5754 38.6955C89.4772 38.5089 89.3398 38.3665 89.163 38.2683C88.9862 38.1701 88.7874 38.121 88.5664 38.121C88.3406 38.121 88.1392 38.1701 87.9625 38.2683C87.7906 38.3665 87.6532 38.5089 87.55 38.6955C87.4469 38.8772 87.3954 39.0957 87.3954 39.351C87.3954 39.6014 87.4469 39.8199 87.55 40.0065C87.6532 40.1931 87.7906 40.3354 87.9625 40.4336C88.1392 40.5319 88.3381 40.581 88.5591 40.581ZM94.22 40.8903V38.1652H92.7102L92.6881 38.7986C92.6783 39.0245 92.6636 39.243 92.6439 39.4541C92.6243 39.6603 92.5924 39.8518 92.5482 40.0286C92.504 40.2004 92.4401 40.3428 92.3567 40.4557C92.2732 40.5687 92.1627 40.6423 92.0252 40.6767L91.112 40.5368C91.2593 40.5368 91.3771 40.4901 91.4655 40.3968C91.5588 40.2986 91.63 40.1661 91.6791 39.9991C91.7331 39.8273 91.7724 39.6333 91.7969 39.4173C91.8215 39.1963 91.8387 38.968 91.8485 38.7323L91.9 37.3845H95.1407V40.8903H94.22ZM90.972 42.1939V40.5368H95.7225V42.1939H94.8608V41.3175H91.8264V42.1939H90.972ZM98.2976 41.369C97.895 41.369 97.5366 41.2831 97.2223 41.1112C96.9081 40.9345 96.6601 40.6939 96.4785 40.3895C96.2968 40.085 96.206 39.7389 96.206 39.351C96.206 38.9582 96.2968 38.612 96.4785 38.3125C96.6601 38.0081 96.9081 37.7699 97.2223 37.5981C97.5366 37.4262 97.895 37.3403 98.2976 37.3403C98.7052 37.3403 99.0661 37.4262 99.3803 37.5981C99.6995 37.7699 99.9474 38.0056 100.124 38.3051C100.306 38.6047 100.397 38.9533 100.397 39.351C100.397 39.7389 100.306 40.085 100.124 40.3895C99.9474 40.6939 99.6995 40.9345 99.3803 41.1112C99.0661 41.2831 98.7052 41.369 98.2976 41.369ZM98.2976 40.581C98.5235 40.581 98.7248 40.5319 98.9016 40.4336C99.0783 40.3354 99.2158 40.1931 99.314 40.0065C99.4171 39.8199 99.4687 39.6014 99.4687 39.351C99.4687 39.0957 99.4171 38.8772 99.314 38.6955C99.2158 38.5089 99.0783 38.3665 98.9016 38.2683C98.7248 38.1701 98.526 38.121 98.305 38.121C98.0791 38.121 97.8778 38.1701 97.7011 38.2683C97.5292 38.3665 97.3917 38.5089 97.2886 38.6955C97.1855 38.8772 97.134 39.0957 97.134 39.351C97.134 39.6014 97.1855 39.8199 97.2886 40.0065C97.3917 40.1931 97.5292 40.3354 97.7011 40.4336C97.8778 40.5319 98.0767 40.581 98.2976 40.581ZM103.184 41.3911C102.86 41.3911 102.571 41.342 102.315 41.2438C102.06 41.1456 101.839 40.9959 101.652 40.7945C101.471 40.5883 101.331 40.3281 101.233 40.0138C101.134 39.6996 101.085 39.3264 101.085 38.8943C101.085 38.5801 101.112 38.2929 101.166 38.0326C101.22 37.7724 101.301 37.5392 101.409 37.333C101.517 37.1218 101.652 36.9352 101.814 36.7732C101.981 36.6112 102.175 36.4761 102.396 36.3681C102.617 36.2601 102.868 36.1766 103.147 36.1177L104.974 35.7274L105.107 36.5523L103.449 36.891C103.356 36.9107 103.243 36.9401 103.111 36.9794C102.983 37.0138 102.85 37.0678 102.713 37.1415C102.58 37.2102 102.455 37.3109 102.337 37.4434C102.224 37.5711 102.131 37.738 102.057 37.9443C101.989 38.1456 101.954 38.3984 101.954 38.7029C101.954 38.7961 101.957 38.8673 101.962 38.9164C101.971 38.9606 101.979 39.0097 101.984 39.0637C101.994 39.1128 101.998 39.1865 101.998 39.2847L101.652 38.9238C101.751 38.6734 101.886 38.4598 102.057 38.283C102.234 38.1014 102.438 37.9639 102.669 37.8706C102.904 37.7724 103.16 37.7233 103.435 37.7233C103.803 37.7233 104.129 37.7994 104.414 37.9516C104.699 38.1038 104.922 38.3174 105.084 38.5924C105.246 38.8673 105.328 39.1791 105.328 39.5277C105.328 39.8911 105.239 40.2127 105.062 40.4926C104.886 40.7724 104.635 40.9934 104.311 41.1554C103.992 41.3125 103.616 41.3911 103.184 41.3911ZM103.258 40.6472C103.479 40.6472 103.673 40.6006 103.84 40.5073C104.012 40.4091 104.144 40.2765 104.237 40.1096C104.336 39.9426 104.385 39.7561 104.385 39.5498C104.385 39.3436 104.336 39.1644 104.237 39.0122C104.144 38.8551 104.012 38.7299 103.84 38.6366C103.673 38.5433 103.474 38.4966 103.243 38.4966C103.022 38.4966 102.823 38.5408 102.647 38.6292C102.475 38.7176 102.34 38.8403 102.242 38.9975C102.148 39.1497 102.102 39.3264 102.102 39.5277C102.102 39.734 102.151 39.923 102.249 40.0949C102.347 40.2667 102.482 40.4017 102.654 40.4999C102.831 40.5981 103.032 40.6472 103.258 40.6472ZM108.399 41.369C108.08 41.369 107.787 41.2954 107.522 41.1481C107.262 41.0008 107.053 40.7798 106.896 40.4852C106.744 40.1857 106.668 39.8076 106.668 39.351C106.668 38.8894 106.742 38.5114 106.889 38.2168C107.041 37.9222 107.247 37.7037 107.508 37.5613C107.768 37.414 108.065 37.3403 108.399 37.3403C108.787 37.3403 109.128 37.4238 109.422 37.5907C109.722 37.7577 109.958 37.9909 110.129 38.2904C110.306 38.5899 110.395 38.9434 110.395 39.351C110.395 39.7585 110.306 40.1145 110.129 40.4189C109.958 40.7184 109.722 40.9517 109.422 41.1186C109.128 41.2855 108.787 41.369 108.399 41.369ZM106.219 42.7463V37.3845H107.095V38.3125L107.066 39.3583L107.139 40.4042V42.7463H106.219ZM108.296 40.581C108.517 40.581 108.713 40.5319 108.885 40.4336C109.062 40.3354 109.201 40.1931 109.305 40.0065C109.408 39.8199 109.459 39.6014 109.459 39.351C109.459 39.0957 109.408 38.8772 109.305 38.6955C109.201 38.5089 109.062 38.3665 108.885 38.2683C108.713 38.1701 108.517 38.121 108.296 38.121C108.075 38.121 107.876 38.1701 107.699 38.2683C107.522 38.3665 107.382 38.5089 107.279 38.6955C107.176 38.8772 107.125 39.0957 107.125 39.351C107.125 39.6014 107.176 39.8199 107.279 40.0065C107.382 40.1931 107.522 40.3354 107.699 40.4336C107.876 40.5319 108.075 40.581 108.296 40.581ZM113.678 41.3175V39.977L113.811 40.1317H112.632C112.092 40.1317 111.668 40.0187 111.358 39.7929C111.054 39.5621 110.902 39.2307 110.902 38.7986C110.902 38.3371 111.064 37.986 111.388 37.7454C111.717 37.5048 112.154 37.3845 112.699 37.3845H114.503V41.3175H113.678ZM110.85 41.3175L111.911 39.815H112.853L111.837 41.3175H110.85ZM113.678 39.6824V37.9148L113.811 38.1578H112.728C112.443 38.1578 112.222 38.2119 112.065 38.3199C111.913 38.423 111.837 38.5924 111.837 38.8281C111.837 39.27 112.124 39.4909 112.699 39.4909H113.811L113.678 39.6824ZM115.741 41.3175V37.3845H116.662V38.9091H117.833V39.7413H116.662V41.3175H115.741ZM119.336 41.369C118.943 41.369 118.592 41.2831 118.282 41.1112C117.978 40.9345 117.737 40.6939 117.561 40.3895C117.384 40.085 117.295 39.7389 117.295 39.351C117.295 38.9582 117.384 38.6096 117.561 38.3051C117.737 38.0007 117.978 37.765 118.282 37.5981C118.592 37.4262 118.943 37.3403 119.336 37.3403C119.733 37.3403 120.084 37.4262 120.389 37.5981C120.698 37.765 120.941 38.0007 121.118 38.3051C121.295 38.6096 121.383 38.9582 121.383 39.351C121.383 39.7389 121.295 40.0875 121.118 40.3968C120.941 40.7012 120.698 40.9394 120.389 41.1112C120.084 41.2831 119.733 41.369 119.336 41.369ZM119.336 40.5883C119.557 40.5883 119.75 40.5368 119.917 40.4336C120.089 40.3305 120.224 40.1881 120.323 40.0065C120.421 39.8248 120.47 39.6063 120.47 39.351C120.47 39.0957 120.421 38.8772 120.323 38.6955C120.224 38.5089 120.089 38.3665 119.917 38.2683C119.75 38.1701 119.559 38.121 119.343 38.121C119.127 38.121 118.933 38.1701 118.761 38.2683C118.589 38.3665 118.454 38.5089 118.356 38.6955C118.258 38.8772 118.209 39.0957 118.209 39.351C118.209 39.6063 118.258 39.8248 118.356 40.0065C118.454 40.1881 118.589 40.3305 118.761 40.4336C118.933 40.5368 119.124 40.5883 119.336 40.5883ZM122.96 41.3175V37.9443L123.174 38.1652H121.576V37.3845H125.258V38.1652H123.667L123.881 37.9443V41.3175H122.96ZM125.97 39.6088L125.793 36.1619H126.883L126.699 39.6088H125.97ZM126.338 41.369C126.167 41.369 126.024 41.3125 125.911 41.1996C125.798 41.0867 125.742 40.9517 125.742 40.7945C125.742 40.6374 125.798 40.5048 125.911 40.3968C126.024 40.2839 126.167 40.2274 126.338 40.2274C126.51 40.2274 126.65 40.2839 126.758 40.3968C126.866 40.5048 126.92 40.6374 126.92 40.7945C126.92 40.9517 126.866 41.0867 126.758 41.1996C126.65 41.3125 126.51 41.369 126.338 41.369Z" fill="#7D7D7D"/>
<path d="M26.9832 26.1798L30.4972 29.4947L38.5048 21.7334C39.1266 21.1308 40.1577 21.1135 40.8024 21.695L40.9684 21.8446C41.6072 22.4207 41.6257 23.3678 41.0097 23.965L30.4972 34.1588L24.4422 28.5341C23.8196 27.9558 23.8084 27.0214 24.4169 26.4303L24.6586 26.1956C25.29 25.5823 26.3422 25.5751 26.9832 26.1798Z" fill="#41B619"/>
<defs>
<filter id="filter0_d_118_3314" x="0.492063" y="0.0952373" width="64.4446" height="64.4444" filterUnits="userSpaceOnUse" color-interpolation-filters="sRGB">
<feFlood flood-opacity="0" result="BackgroundImageFix"/>
<feColorMatrix in="SourceAlpha" type="matrix" values="0 0 0 0 0 0 0 0 0 0 0 0 0 0 0 0 0 0 127 0" result="hardAlpha"/>
<feOffset dy="4.60317"/>
<feGaussianBlur stdDeviation="5.75397"/>
<feComposite in2="hardAlpha" operator="out"/>
<feColorMatrix type="matrix" values="0 0 0 0 0.168437 0 0 0 0 0.171062 0 0 0 0 0.175 0 0 0 0.1 0"/>
<feBlend mode="normal" in2="BackgroundImageFix" result="effect1_dropShadow_118_3314"/>
<feBlend mode="normal" in="SourceGraphic" in2="effect1_dropShadow_118_3314" result="shape"/>
</filter>
<filter id="filter1_d_118_3314" x="4.63464" y="4.23801" width="56.1585" height="56.1587" filterUnits="userSpaceOnUse" color-interpolation-filters="sRGB">
<feFlood flood-opacity="0" result="BackgroundImageFix"/>
<feColorMatrix in="SourceAlpha" type="matrix" values="0 0 0 0 0 0 0 0 0 0 0 0 0 0 0 0 0 0 127 0" result="hardAlpha"/>
<feOffset dy="4.60317"/>
<feGaussianBlur stdDeviation="5.75397"/>
<feComposite in2="hardAlpha" operator="out"/>
<feColorMatrix type="matrix" values="0 0 0 0 0.168437 0 0 0 0 0.171062 0 0 0 0 0.175 0 0 0 0.1 0"/>
<feBlend mode="normal" in2="BackgroundImageFix" result="effect1_dropShadow_118_3314"/>
<feBlend mode="normal" in="SourceGraphic" in2="effect1_dropShadow_118_3314" result="shape"/>
</filter>
</defs>
</svg>
