<svg width="169" height="36" viewBox="0 0 169 36" fill="none" xmlns="http://www.w3.org/2000/svg">
<path d="M31.941 17.0216C30.9135 17.0216 30.0212 16.8797 29.264 16.5957C28.5069 16.3118 27.8512 15.9197 27.2969 15.4195C26.7561 14.9057 26.2761 14.3311 25.857 13.6957L29.1221 11.7488C29.2979 12.0868 29.5142 12.391 29.7711 12.6614C30.0415 12.9318 30.3592 13.1414 30.7242 13.2901C31.0893 13.4388 31.5084 13.5132 31.9816 13.5132C32.5359 13.5132 33.0091 13.4253 33.4012 13.2495C33.8068 13.0603 34.1448 12.8034 34.4152 12.4789C34.6856 12.1409 34.8884 11.7556 35.0236 11.3229C35.1588 10.8768 35.2399 10.4036 35.2669 9.90334L36.8082 10.9173H30.8662V8.17954H36.7271L35.2467 9.17326C35.2061 8.70006 35.1115 8.26742 34.9627 7.87534C34.814 7.48326 34.5977 7.14526 34.3138 6.86134C34.0434 6.5639 33.7121 6.33406 33.3201 6.17182C32.928 6.00958 32.4751 5.92846 31.9613 5.92846C31.4881 5.92846 31.0622 6.00958 30.6837 6.17182C30.3051 6.32054 29.9806 6.53686 29.7102 6.82078C29.4533 7.09118 29.2438 7.40214 29.0815 7.75366L25.9787 5.54314C26.6276 4.62378 27.4186 3.87342 28.3514 3.29206C29.2978 2.7107 30.5214 2.42002 32.0221 2.42002C33.1713 2.42002 34.1921 2.62282 35.0844 3.02842C35.9903 3.4205 36.7541 3.9613 37.3761 4.65082C37.998 5.32682 38.4712 6.10422 38.7957 6.98302C39.1201 7.86182 39.2824 8.78794 39.2824 9.76138C39.2824 10.7483 39.1134 11.6812 38.7754 12.56C38.4374 13.4388 37.9439 14.2162 37.2949 14.8922C36.6595 15.5547 35.8889 16.0752 34.983 16.4538C34.0772 16.8323 33.0632 17.0216 31.941 17.0216Z" fill="#41B619"/>
<path d="M41.8576 16.8999V2.50114H45.7919V7.79422H46.6031L50.3144 2.50114H54.6543L49.5843 9.45718L55.1207 16.8999H50.3347L46.4409 11.3838H45.7919V16.8999H41.8576Z" fill="#41B619"/>
<path d="M63.0792 17.0216C61.9841 17.0216 60.9904 16.8188 60.098 16.4132C59.2057 15.9941 58.4351 15.4398 57.7861 14.7503C57.1507 14.0472 56.6572 13.2631 56.3057 12.3978C55.9677 11.519 55.7987 10.6131 55.7987 9.68026C55.7987 8.72034 55.9812 7.80774 56.3462 6.94246C56.7113 6.07718 57.2183 5.30654 57.8672 4.63054C58.5297 3.94102 59.3071 3.40022 60.1994 3.00814C61.1053 2.61606 62.0923 2.42002 63.1603 2.42002C64.2554 2.42002 65.2492 2.62958 66.1415 3.0487C67.0338 3.4543 67.7977 4.00862 68.4331 4.71166C69.0686 5.4147 69.5553 6.20562 69.8933 7.08442C70.2448 7.9497 70.4206 8.84202 70.4206 9.76138C70.4206 10.7078 70.238 11.6136 69.873 12.4789C69.5215 13.3442 69.0145 14.1216 68.352 14.8111C67.703 15.4871 66.9324 16.0279 66.0401 16.4335C65.1478 16.8256 64.1608 17.0216 63.0792 17.0216ZM59.8141 9.72082C59.8141 10.2075 59.8817 10.6807 60.0169 11.1404C60.1521 11.5866 60.3549 11.9922 60.6253 12.3572C60.8957 12.7087 61.2337 12.9927 61.6393 13.209C62.0584 13.4118 62.5519 13.5132 63.1198 13.5132C63.6876 13.5132 64.1811 13.405 64.6002 13.1887C65.0193 12.9724 65.3573 12.6817 65.6142 12.3167C65.8846 11.9381 66.0806 11.5257 66.2023 11.0796C66.3375 10.6199 66.4051 10.1535 66.4051 9.68026C66.4051 9.19354 66.3375 8.7271 66.2023 8.28094C66.0671 7.83478 65.8643 7.43594 65.5939 7.08442C65.3235 6.71938 64.9788 6.43546 64.5596 6.23266C64.1405 6.02986 63.6538 5.92846 63.0995 5.92846C62.5316 5.92846 62.0382 6.03662 61.619 6.25294C61.2134 6.46926 60.8754 6.75994 60.605 7.12498C60.3346 7.4765 60.1318 7.8821 59.9966 8.34178C59.875 8.78794 59.8141 9.24762 59.8141 9.72082Z" fill="#41B619"/>
<path d="M73.9319 16.8999V2.50107H75.7571V14.3649L84.0921 2.50107H85.7957V16.8999H83.9705V5.25915L75.7368 16.8999H73.9319Z" fill="#464646"/>
<path d="M89.3375 16.8999V2.50107H100.451V16.8999H98.6258V4.12347H91.1627V16.8999H89.3375Z" fill="#464646"/>
<path d="M109.735 17.0013C108.721 17.0013 107.801 16.7985 106.977 16.3929C106.152 15.9873 105.435 15.4397 104.827 14.7502C104.232 14.0471 103.772 13.263 103.448 12.3977C103.123 11.5189 102.961 10.6198 102.961 9.70047C102.961 8.74055 103.13 7.82795 103.468 6.96267C103.82 6.08387 104.3 5.30647 104.908 4.63047C105.53 3.94095 106.253 3.40015 107.078 3.00807C107.903 2.60247 108.802 2.39967 109.775 2.39967C110.789 2.39967 111.709 2.60923 112.533 3.02835C113.358 3.44747 114.068 4.00855 114.663 4.71159C115.258 5.41463 115.717 6.19879 116.042 7.06407C116.366 7.92935 116.528 8.81491 116.528 9.72075C116.528 10.6807 116.359 11.6 116.021 12.4788C115.683 13.3441 115.203 14.1215 114.582 14.811C113.973 15.487 113.257 16.0211 112.432 16.4132C111.607 16.8052 110.708 17.0013 109.735 17.0013ZM104.807 9.70047C104.807 10.4305 104.921 11.1404 105.151 11.8299C105.395 12.5059 105.733 13.1075 106.165 13.6348C106.598 14.1621 107.118 14.5812 107.727 14.8922C108.335 15.2031 109.011 15.3586 109.755 15.3586C110.526 15.3586 111.215 15.1964 111.823 14.8719C112.432 14.5474 112.946 14.1148 113.365 13.574C113.797 13.0332 114.122 12.4248 114.338 11.7487C114.568 11.0728 114.683 10.39 114.683 9.70047C114.683 8.97039 114.561 8.26735 114.318 7.59135C114.088 6.91535 113.75 6.31371 113.304 5.78643C112.871 5.24563 112.351 4.82651 111.742 4.52907C111.147 4.21811 110.485 4.06263 109.755 4.06263C108.984 4.06263 108.295 4.22487 107.686 4.54935C107.078 4.86031 106.557 5.28619 106.125 5.82699C105.706 6.36779 105.381 6.97619 105.151 7.65219C104.921 8.31467 104.807 8.99743 104.807 9.70047Z" fill="#464646"/>
<path d="M128.992 4.12347H124.024V16.8999H122.198V4.12347H117.23V2.50107H128.992V4.12347Z" fill="#464646"/>
<path d="M140.841 15.2775V16.8999H131.066V2.50107H140.658V4.12347H132.891V8.78787H139.644V10.3089H132.891V15.2775H140.841Z" fill="#464646"/>
<path d="M143.345 16.8999V2.50107H145.17V8.72703H147.097L151.842 2.50107H153.951L148.597 9.47739L154.316 16.8999H152.086L147.137 10.39H145.17V16.8999H143.345Z" fill="#464646"/>
<path d="M160.935 2.50107H162.476L168.358 16.8999H166.411L164.707 12.6816H158.664L156.981 16.8999H155.034L160.935 2.50107ZM164.302 11.262L161.706 4.61019L159.029 11.262H164.302Z" fill="#464646"/>
<path d="M28.7875 32.2113C28.3751 32.2113 27.9999 32.1099 27.6619 31.9071C27.3239 31.7043 27.0569 31.4407 26.8609 31.1162V32.1099H26.0699V24.7077H26.9623V27.8714C27.1853 27.5266 27.4591 27.2495 27.7836 27.0399C28.1081 26.8304 28.4866 26.7256 28.9193 26.7256C29.2843 26.7256 29.6122 26.8033 29.9029 26.9588C30.1935 27.1075 30.4403 27.3137 30.6431 27.5773C30.8526 27.8342 31.0115 28.1283 31.1197 28.4595C31.2346 28.784 31.292 29.1254 31.292 29.4837C31.292 29.8555 31.2278 30.207 31.0994 30.5382C30.9777 30.8627 30.8019 31.1534 30.5721 31.4103C30.3423 31.6604 30.0752 31.8564 29.771 31.9984C29.4736 32.1403 29.1457 32.2113 28.7875 32.2113ZM28.5644 31.4407C28.828 31.4407 29.0714 31.3866 29.2945 31.2784C29.5175 31.1703 29.7102 31.0249 29.8724 30.8424C30.0347 30.6599 30.1597 30.4503 30.2476 30.2137C30.3355 29.9771 30.3794 29.7338 30.3794 29.4837C30.3794 29.1389 30.3051 28.8144 30.1564 28.5102C30.0144 28.206 29.8116 27.9627 29.548 27.7801C29.2911 27.5909 28.9903 27.4962 28.6455 27.4962C28.3954 27.4962 28.1622 27.5537 27.9458 27.6686C27.7295 27.7835 27.5369 27.9356 27.3679 28.1249C27.2056 28.3074 27.0704 28.5102 26.9623 28.7333V30.2644C26.9961 30.4334 27.067 30.5889 27.1752 30.7309C27.2834 30.8728 27.4152 30.9979 27.5707 31.1061C27.7261 31.2075 27.8884 31.2886 28.0574 31.3494C28.2331 31.4103 28.4021 31.4407 28.5644 31.4407Z" fill="#BFBFBF"/>
<path d="M32.4528 33.5498C32.5406 33.5566 32.6285 33.5633 32.7164 33.5701C32.8043 33.5836 32.8719 33.5904 32.9192 33.5904C33.0274 33.5904 33.122 33.5532 33.2031 33.4788C33.2842 33.4045 33.3721 33.2591 33.4668 33.0428C33.5682 32.8332 33.6966 32.5223 33.8521 32.1099L31.6111 26.8168H32.5542L34.3388 31.2075L35.9511 26.8168H36.8332L34.2577 33.4991C34.1968 33.6546 34.1056 33.7999 33.9839 33.9351C33.869 34.0771 33.7203 34.1886 33.5377 34.2697C33.3552 34.3509 33.1355 34.3914 32.8786 34.3914C32.8178 34.3914 32.7536 34.388 32.686 34.3813C32.6251 34.3745 32.5474 34.361 32.4528 34.3407V33.5498Z" fill="#BFBFBF"/>
<path d="M40.0122 32.1099V26.8168H40.9045V29.0071H43.6626V26.8168H44.5549V32.1099H43.6626V29.798H40.9045V32.1099H40.0122Z" fill="#BFBFBF"/>
<path d="M48.3358 32.2113C47.937 32.2113 47.5719 32.1403 47.2407 31.9984C46.9162 31.8497 46.6323 31.6502 46.3889 31.4001C46.1523 31.1432 45.9664 30.8492 45.8312 30.5179C45.7028 30.1867 45.6386 29.8352 45.6386 29.4634C45.6386 28.9631 45.7535 28.5068 45.9833 28.0945C46.2132 27.6821 46.5309 27.3509 46.9365 27.1008C47.3488 26.8506 47.8187 26.7256 48.3459 26.7256C48.88 26.7256 49.343 26.854 49.7351 27.1109C50.134 27.361 50.4415 27.6923 50.6579 28.1046C50.8809 28.5102 50.9925 28.9496 50.9925 29.4228C50.9925 29.4904 50.9891 29.558 50.9823 29.6256C50.9823 29.6865 50.979 29.7338 50.9722 29.7676H46.5816C46.6086 30.1123 46.7033 30.4199 46.8655 30.6903C47.0345 30.954 47.2508 31.1635 47.5145 31.319C47.7781 31.4677 48.062 31.5421 48.3662 31.5421C48.6907 31.5421 48.9949 31.461 49.2788 31.2987C49.5695 31.1365 49.7689 30.9235 49.8771 30.6599L50.6477 30.8728C50.5328 31.1297 50.3604 31.3596 50.1306 31.5624C49.9075 31.7652 49.6405 31.924 49.3295 32.0389C49.0253 32.1539 48.6941 32.2113 48.3358 32.2113ZM46.5512 29.149H50.161C50.134 28.8043 50.0359 28.5001 49.8669 28.2364C49.6979 27.9728 49.4816 27.7666 49.218 27.6179C48.9543 27.4692 48.6637 27.3948 48.3459 27.3948C48.035 27.3948 47.7477 27.4692 47.484 27.6179C47.2204 27.7666 47.0041 27.9728 46.8351 28.2364C46.6728 28.5001 46.5782 28.8043 46.5512 29.149Z" fill="#BFBFBF"/>
<path d="M54.8337 32.2113C54.4011 32.2113 54.0158 32.1032 53.6778 31.8868C53.3398 31.6705 53.0727 31.3967 52.8767 31.0655V34.2697H51.9844V26.8168H52.7753V27.8106C52.9849 27.4861 53.2586 27.2258 53.5966 27.0298C53.9346 26.827 54.3031 26.7256 54.7019 26.7256C55.0669 26.7256 55.4016 26.7999 55.7058 26.9487C56.01 27.0974 56.2736 27.3002 56.4967 27.5571C56.7198 27.8139 56.8921 28.108 57.0138 28.4392C57.1423 28.7637 57.2065 29.1051 57.2065 29.4634C57.2065 29.9636 57.1051 30.4233 56.9023 30.8424C56.7062 31.2615 56.4291 31.5962 56.0708 31.8463C55.7125 32.0896 55.3002 32.2113 54.8337 32.2113ZM54.5599 31.4407C54.8236 31.4407 55.0602 31.3866 55.2697 31.2784C55.4861 31.1635 55.6686 31.0148 55.8173 30.8323C55.9728 30.643 56.0911 30.4301 56.1722 30.1935C56.2533 29.9569 56.2939 29.7135 56.2939 29.4634C56.2939 29.1997 56.2466 28.9496 56.1519 28.713C56.064 28.4764 55.9356 28.2669 55.7666 28.0843C55.6044 27.9018 55.4117 27.7599 55.1886 27.6585C54.9723 27.5503 54.7357 27.4962 54.4788 27.4962C54.3166 27.4962 54.1476 27.5266 53.9718 27.5875C53.8028 27.6483 53.6406 27.7362 53.4851 27.8511C53.3296 27.9593 53.1978 28.0843 53.0896 28.2263C52.9815 28.3683 52.9105 28.5204 52.8767 28.6826V30.1935C52.9781 30.4233 53.1133 30.6329 53.2823 30.8221C53.4513 31.0114 53.6473 31.1635 53.8704 31.2784C54.0935 31.3866 54.3233 31.4407 54.5599 31.4407Z" fill="#BFBFBF"/>
<path d="M58.2919 32.1099V26.827H59.1843V30.9134L62.1451 26.8168H62.9563V32.1099H62.064V28.1046L59.1437 32.1099H58.2919Z" fill="#BFBFBF"/>
<path d="M66.3189 32.2012C65.9944 32.2012 65.68 32.1505 65.3758 32.0491C65.0784 31.9477 64.8114 31.8023 64.5748 31.6131C64.3382 31.4238 64.1523 31.1939 64.0171 30.9235L64.737 30.5889C64.8993 30.8931 65.1156 31.1196 65.386 31.2683C65.6631 31.4103 65.9538 31.4812 66.258 31.4812C66.5825 31.4812 66.8732 31.4035 67.1301 31.248C67.3937 31.0858 67.61 30.8728 67.779 30.6092C67.948 30.3388 68.046 30.0447 68.0731 29.727H65.7916V29.1186H68.0629C68.0291 28.8347 67.9345 28.5677 67.779 28.3176C67.6303 28.0607 67.4275 27.8545 67.1706 27.699C66.9205 27.5368 66.6197 27.4557 66.2682 27.4557C65.9775 27.4557 65.7003 27.5199 65.4367 27.6483C65.1798 27.7768 64.9669 27.9931 64.7979 28.2973L64.1083 27.9424C64.3044 27.5773 64.5883 27.2833 64.9601 27.0602C65.3319 26.8371 65.7781 26.7256 66.2986 26.7256C66.7312 26.7256 67.1132 26.8033 67.4444 26.9588C67.7824 27.1075 68.0629 27.3137 68.286 27.5773C68.5159 27.8342 68.6882 28.1249 68.8032 28.4494C68.9248 28.7739 68.9857 29.1051 68.9857 29.4431C68.9857 29.7946 68.9248 30.136 68.8032 30.4672C68.6815 30.7917 68.5023 31.0858 68.2657 31.3494C68.0359 31.6063 67.7554 31.8125 67.4241 31.968C67.0996 32.1234 66.7312 32.2012 66.3189 32.2012Z" fill="#BFBFBF"/>
<path d="M69.5996 32.1505V31.3494C69.7754 31.3494 69.9309 31.3055 70.0661 31.2176C70.208 31.123 70.3331 30.9675 70.4412 30.7512C70.5494 30.5281 70.6339 30.2239 70.6947 29.8386C70.7623 29.4465 70.8063 28.9496 70.8266 28.348L70.8874 26.8168H74.4871V32.1099H73.5948V27.6078H71.6783L71.658 28.4291C71.631 29.1524 71.5702 29.7541 71.4755 30.234C71.3809 30.714 71.2491 31.0925 71.0801 31.3697C70.9111 31.6469 70.7015 31.8463 70.4514 31.968C70.208 32.0896 69.9241 32.1505 69.5996 32.1505Z" fill="#BFBFBF"/>
<path d="M77.216 32.1099V27.6078H75.3908V26.8168H79.9335V27.6078H78.1083V32.1099H77.216Z" fill="#BFBFBF"/>
<path d="M14.8387 1.69358C12.1111 1.90527 9.94537 2.4752 7.85289 3.52551C6.52169 4.19722 5.57722 4.83636 4.40886 5.87039C2.82118 7.2708 1.96628 8.93582 1.78716 10.9713C1.64467 12.5468 2.10469 14.281 3.03287 15.6733C3.33412 16.1251 3.86335 16.7521 3.90813 16.7032C3.92441 16.6869 4.01397 16.4508 4.11168 16.1821C4.45771 15.2132 5.048 14.0205 5.5528 13.2551C6.50133 11.8303 8.27627 10.1123 9.70925 9.24114C10.0431 9.03759 10.7066 8.6997 10.7311 8.72006C10.7392 8.7282 10.385 9.27778 9.9413 9.94542C8.46354 12.1682 8.22742 12.5671 7.12419 14.6962C6.54611 15.8157 5.57722 17.9164 5.57722 18.0548C5.57722 18.0914 6.04538 18.3316 6.45248 18.4944C7.3888 18.8771 8.30477 19.0562 9.34286 19.0562C11.6715 19.0562 13.54 18.1566 15.0829 16.2839C15.9663 15.2132 16.5363 14.0612 16.7683 12.8847C16.8782 12.3269 16.9271 11.7936 16.9963 10.324C17.0655 8.88697 17.1347 8.16641 17.2812 7.32779C17.554 5.78082 18.1402 3.96924 18.8771 2.40599C19.0236 2.08439 19.0806 1.92969 19.048 1.90934C18.9992 1.88084 18.8567 1.85641 18.0954 1.76685C17.6273 1.70986 15.3028 1.65694 14.8387 1.69358Z" fill="#41B619"/>
</svg>
