<svg width="23" height="23" viewBox="0 0 23 23" fill="none" xmlns="http://www.w3.org/2000/svg">
<path d="M8.43633 0.094336C8.33301 0.148242 8.22969 0.251563 8.17578 0.359375C8.09043 0.530078 8.08594 0.619922 8.08594 2.69531C8.08594 4.7707 8.09043 4.86055 8.17578 5.03125C8.2791 5.2334 8.53516 5.39062 8.75977 5.39062C8.98437 5.39062 9.24043 5.2334 9.34375 5.03125C9.4291 4.86055 9.43359 4.7707 9.43359 2.69531C9.43359 0.619922 9.4291 0.530078 9.34375 0.359375C9.17754 0.0314454 8.77324 -0.0853514 8.43633 0.094336Z" fill="#7D7D7D"/>
<path d="M2.7043 2.47071C2.40782 2.6504 2.3 3.02774 2.44825 3.3422C2.48867 3.42306 3.19844 4.16427 4.03399 4.99532C5.66465 6.62598 5.64668 6.60802 6.05098 6.54513C6.43282 6.48223 6.66192 6.02852 6.50918 5.62872C6.45078 5.467 3.53086 2.53809 3.34219 2.44825C3.14453 2.35391 2.8795 2.3629 2.7043 2.47071Z" fill="#7D7D7D"/>
<path d="M14.1729 2.4527C14.0201 2.52907 11.2934 5.22438 11.0912 5.4984C10.6869 6.04196 11.2484 6.75172 11.8908 6.50915C12.0525 6.45075 14.9814 3.53083 15.0713 3.34215C15.3453 2.76715 14.7344 2.16071 14.1729 2.4527Z" fill="#7D7D7D"/>
<path d="M0.350391 8.18027C0.157227 8.2791 0 8.54414 0 8.75977C0 8.98438 0.157227 9.24043 0.359375 9.34375C0.530078 9.4291 0.619922 9.43359 2.69531 9.43359C4.7707 9.43359 4.86055 9.4291 5.03125 9.34375C5.2334 9.24043 5.39062 8.98438 5.39062 8.75977C5.39062 8.53516 5.2334 8.2791 5.03125 8.17578C4.86055 8.09043 4.7752 8.08594 2.68633 8.08594C0.61543 8.09043 0.507617 8.09492 0.350391 8.18027Z" fill="#7D7D7D"/>
<path d="M8.59356 8.2656C8.39591 8.35096 8.24317 8.54412 8.19825 8.76873C8.17579 8.86307 8.66095 10.3724 10.1299 14.7748C11.9941 20.3765 12.0975 20.664 12.2412 20.7943C12.3266 20.8707 12.4658 20.9426 12.5512 20.956C12.8881 21.0234 12.9465 20.983 14.0381 19.8959L15.0713 18.8672L17.0928 20.8887C19.249 23.0494 19.249 23.0449 19.6174 22.982C19.7656 22.9506 19.9768 22.7619 21.3514 21.3918C23.018 19.7297 23.0449 19.6937 22.982 19.3299C22.9506 19.1771 22.7215 18.9301 20.9111 17.1152L18.8717 15.0713L19.8959 14.0381C20.7629 13.1666 20.9291 12.9779 20.9561 12.8387C21.001 12.6095 20.9471 12.4164 20.7943 12.2412C20.6686 12.0974 20.3451 11.9851 14.7883 10.1344C11.5584 9.05623 8.88555 8.17576 8.84962 8.17576C8.81368 8.17576 8.69688 8.21619 8.59356 8.2656Z" fill="#7D7D7D"/>
<path d="M5.50292 11.0867C5.19746 11.3158 2.47968 14.074 2.43027 14.2088C2.21464 14.7748 2.74472 15.3049 3.31074 15.0893C3.47246 15.0309 6.40136 12.1109 6.49121 11.9223C6.62597 11.6393 6.55859 11.3248 6.31601 11.1002C6.22617 11.0148 6.13632 10.9834 5.93867 10.9699C5.70957 10.9565 5.66464 10.9654 5.50292 11.0867Z" fill="#7D7D7D"/>
</svg>
