<svg width="37" height="49" viewBox="0 0 37 49" fill="none" xmlns="http://www.w3.org/2000/svg">
<path d="M0 14V28H3.5H7V26.8525V25.7049L4.66475 25.6934L2.32377 25.6762L2.30656 21.5852L2.29508 17.5H5.82377H9.35246V18.0738V18.6475H10.5H11.6475V16.8975V15.1475H7H2.35246V8.75V2.35246H8.75H15.1475V4.07377V5.79508H14.5738H14V6.97131V8.14754H15.75H17.5V5.22131V2.29508L21.591 2.30656L25.6762 2.32377L25.6934 4.65902L25.7049 7H23.9549H22.2049V8.17623V9.35246H23.9549H25.7049V12.25V15.1475H21.6025H17.5V13.3975V11.6475L16.341 11.659L15.1762 11.6762L15.159 18.6877L15.1475 25.7049H12.8238H10.5V26.8525V28H14H17.5V22.75V17.5H22.75H28V8.75V1.90735e-06H14H0V14Z" fill="#41B619"/>
<g clip-path="url(#clip0_244_1013)">
<path d="M22.4363 26.0943C22.333 26.1482 22.2297 26.2516 22.1758 26.3594C22.0904 26.5301 22.0859 26.6199 22.0859 28.6953C22.0859 30.7707 22.0904 30.8605 22.1758 31.0312C22.2791 31.2334 22.5352 31.3906 22.7598 31.3906C22.9844 31.3906 23.2404 31.2334 23.3438 31.0312C23.4291 30.8605 23.4336 30.7707 23.4336 28.6953C23.4336 26.6199 23.4291 26.5301 23.3438 26.3594C23.1775 26.0314 22.7732 25.9146 22.4363 26.0943Z" fill="#7D7D7D"/>
<path d="M16.7043 28.4707C16.4078 28.6504 16.3 29.0277 16.4482 29.3422C16.4887 29.4231 17.1984 30.1643 18.034 30.9953C19.6647 32.626 19.6467 32.608 20.051 32.5451C20.4328 32.4822 20.6619 32.0285 20.5092 31.6287C20.4508 31.467 17.5309 28.5381 17.3422 28.4483C17.1445 28.3539 16.8795 28.3629 16.7043 28.4707Z" fill="#7D7D7D"/>
<path d="M28.1729 28.4527C28.0201 28.5291 25.2934 31.2244 25.0912 31.4984C24.6869 32.042 25.2484 32.7517 25.8908 32.5091C26.0525 32.4507 28.9814 29.5308 29.0713 29.3422C29.3453 28.7672 28.7344 28.1607 28.1729 28.4527Z" fill="#7D7D7D"/>
<path d="M14.3504 34.1803C14.1572 34.2791 14 34.5441 14 34.7598C14 34.9844 14.1572 35.2404 14.3594 35.3438C14.5301 35.4291 14.6199 35.4336 16.6953 35.4336C18.7707 35.4336 18.8605 35.4291 19.0312 35.3438C19.2334 35.2404 19.3906 34.9844 19.3906 34.7598C19.3906 34.5352 19.2334 34.2791 19.0312 34.1758C18.8605 34.0904 18.7752 34.0859 16.6863 34.0859C14.6154 34.0904 14.5076 34.0949 14.3504 34.1803Z" fill="#7D7D7D"/>
<path d="M22.5936 34.2656C22.3959 34.351 22.2432 34.5441 22.1983 34.7687C22.1758 34.8631 22.6609 36.3724 24.1299 40.7748C25.9941 46.3765 26.0975 46.664 26.2412 46.7943C26.3266 46.8707 26.4658 46.9426 26.5512 46.956C26.8881 47.0234 26.9465 46.983 28.0381 45.8959L29.0713 44.8672L31.0928 46.8887C33.249 49.0494 33.249 49.0449 33.6174 48.982C33.7656 48.9506 33.9768 48.7619 35.3514 47.3918C37.018 45.7297 37.0449 45.6937 36.982 45.3299C36.9506 45.1771 36.7215 44.9301 34.9111 43.1152L32.8717 41.0713L33.8959 40.0381C34.7629 39.1666 34.9291 38.9779 34.9561 38.8387C35.001 38.6095 34.9471 38.4164 34.7943 38.2412C34.6686 38.0974 34.3451 37.9851 28.7883 36.1344C25.5584 35.0562 22.8856 34.1758 22.8496 34.1758C22.8137 34.1758 22.6969 34.2162 22.5936 34.2656Z" fill="#7D7D7D"/>
<path d="M19.5029 37.0867C19.1975 37.3158 16.4797 40.074 16.4303 40.2088C16.2146 40.7748 16.7447 41.3049 17.3107 41.0893C17.4725 41.0309 20.4014 38.1109 20.4912 37.9223C20.626 37.6393 20.5586 37.3248 20.316 37.1002C20.2262 37.0148 20.1363 36.9834 19.9387 36.9699C19.7096 36.9565 19.6646 36.9654 19.5029 37.0867Z" fill="#7D7D7D"/>
</g>
<defs>
<clipPath id="clip0_244_1013">
<rect width="23" height="23" fill="white" transform="translate(14 26)"/>
</clipPath>
</defs>
</svg>
