<svg width="128" height="65" fill="none" xmlns="http://www.w3.org/2000/svg"><g filter="url(#filter0_d_118_3314)"><circle cx="32.714" cy="27.714" r="20.714" fill="#F9F9F9"/></g><g filter="url(#filter1_d_118_3314)"><circle cx="32.714" cy="27.714" r="16.571" fill="#F9F9F9"/></g><path d="M64.183 13.792c1.43 0 2.66.295 3.69.884 1.032.59 1.827 1.45 2.387 2.585.56 1.12.84 2.519.84 4.198 0 1.782-.34 3.292-1.017 4.53-.663 1.237-1.584 2.18-2.762 2.828-1.178.648-2.548.972-4.11.972-.81 0-1.59-.088-2.342-.265-.751-.177-1.4-.442-1.944-.796L60.25 26.1a4.1 4.1 0 001.37.619c.486.103.994.154 1.524.154 1.326 0 2.379-.405 3.16-1.215.795-.81 1.193-2.01 1.193-3.601 0-.265-.008-.56-.022-.884a7.256 7.256 0 00-.11-.972l.971.928a4.055 4.055 0 01-1.06 1.458 4.929 4.929 0 01-1.591.884c-.604.191-1.282.287-2.033.287-.987 0-1.885-.199-2.695-.597a4.936 4.936 0 01-1.923-1.679c-.471-.722-.707-1.569-.707-2.54 0-1.061.258-1.974.774-2.74a5.198 5.198 0 012.12-1.768c.9-.427 1.886-.64 2.961-.64zm.221 2.674c-.515 0-.964.095-1.347.287a2.066 2.066 0 00-.906.795c-.221.34-.332.744-.332 1.216 0 .707.236 1.274.707 1.7.486.413 1.127.62 1.923.62.515 0 .972-.096 1.37-.288.412-.206.729-.486.95-.84.22-.353.331-.75.331-1.192 0-.442-.11-.833-.331-1.171a2.043 2.043 0 00-.906-.818c-.398-.206-.884-.31-1.459-.31zm13.671 13.323c-1.075 0-2.143-.14-3.204-.42-1.045-.294-1.944-.707-2.695-1.237l1.414-2.74c.59.427 1.267.766 2.033 1.017.78.25 1.568.375 2.364.375.898 0 1.605-.177 2.121-.53.516-.354.773-.847.773-1.48a1.87 1.87 0 00-.309-1.061c-.206-.31-.575-.545-1.105-.707-.515-.162-1.245-.243-2.187-.243h-3.955l.795-8.706h9.435v2.873h-8.153l1.856-1.635-.553 6.208-1.856-1.635h3.27c1.532 0 2.762.214 3.69.641.943.413 1.628.98 2.055 1.701.427.722.64 1.54.64 2.453 0 .913-.227 1.76-.684 2.541-.457.766-1.164 1.392-2.121 1.878-.943.471-2.15.707-3.624.707zm9.898-.265l10.562-15.467h2.629L90.602 29.524h-2.629zm1.348-7.115c-.751 0-1.414-.17-1.989-.508a3.802 3.802 0 01-1.37-1.48c-.324-.648-.486-1.407-.486-2.276 0-.87.162-1.62.486-2.254a3.802 3.802 0 011.37-1.48c.575-.354 1.238-.53 1.989-.53.751 0 1.414.176 1.988.53a3.645 3.645 0 011.348 1.48c.324.634.486 1.385.486 2.254s-.162 1.628-.486 2.276a3.645 3.645 0 01-1.348 1.48c-.574.339-1.237.508-1.988.508zm0-1.811c.486 0 .876-.2 1.17-.597.296-.413.443-1.031.443-1.856 0-.825-.147-1.436-.442-1.834-.295-.412-.685-.619-1.171-.619-.471 0-.862.207-1.171.619-.295.398-.442 1.009-.442 1.834 0 .81.147 1.421.442 1.834.31.412.7.619 1.17.619zM99.816 29.7c-.736 0-1.4-.17-1.989-.509a3.646 3.646 0 01-1.347-1.48c-.324-.648-.486-1.407-.486-2.276 0-.869.162-1.62.486-2.253a3.646 3.646 0 011.347-1.48 3.79 3.79 0 011.99-.531c.765 0 1.435.177 2.01.53a3.656 3.656 0 011.348 1.48c.324.634.486 1.385.486 2.254 0 .87-.162 1.628-.486 2.276a3.656 3.656 0 01-1.348 1.48c-.575.34-1.245.509-2.01.509zm0-1.812c.486 0 .877-.199 1.171-.597.295-.412.442-1.03.442-1.856 0-.81-.147-1.421-.442-1.834-.294-.412-.685-.618-1.17-.618-.472 0-.863.206-1.172.618-.295.398-.442 1.01-.442 1.834 0 .825.147 1.444.442 1.856.31.398.7.597 1.171.597z" fill="#41B619"/><path d="M59.116 41.384c.363 0 .684-.052.964-.155.285-.103.509-.245.67-.427a.95.95 0 00.244-.64c0-.3-.126-.536-.376-.708-.25-.177-.594-.265-1.031-.265l-.03.199c.256 0 .482-.042.678-.125.201-.084.358-.2.471-.347a.81.81 0 00.177-.508.819.819 0 00-.243-.589 1.557 1.557 0 00-.663-.383 2.792 2.792 0 00-.957-.11 3.026 3.026 0 00-.715.103 4.331 4.331 0 00-.729.258l.236.677c.216-.093.427-.164.633-.213.212-.05.415-.074.612-.074.186 0 .346.02.478.059a.613.613 0 01.302.162c.074.069.11.15.11.243s-.029.174-.088.243a.535.535 0 01-.257.154c-.108.035-.24.052-.398.052h-.685v.619h.759c.25 0 .441.041.574.125a.382.382 0 01.206.353.395.395 0 01-.125.288.75.75 0 01-.339.191c-.147.04-.324.06-.53.06-.24 0-.481-.03-.722-.09a2.545 2.545 0 01-.648-.25l-.258.685c.236.133.499.236.788.31.295.068.592.103.892.103zm5.212-.066v-.796l-.051-.17v-1.391c0-.27-.082-.48-.243-.626-.163-.153-.408-.229-.737-.229-.22 0-.44.035-.655.103-.212.07-.39.165-.538.288l-.361-.67c.211-.163.462-.283.751-.361.295-.084.6-.126.913-.126.57 0 1.01.138 1.319.413.314.27.471.69.471 1.26v2.305h-.869zm-1.237.051a1.89 1.89 0 01-.774-.147 1.257 1.257 0 01-.515-.42 1.1 1.1 0 01-.177-.611c0-.221.052-.42.155-.597.108-.177.282-.317.523-.42.24-.103.56-.154.957-.154h1.142v.61h-1.075c-.315 0-.526.052-.634.155a.477.477 0 00-.162.369c0 .167.066.3.199.397.133.099.317.148.552.148.226 0 .427-.052.604-.155a.873.873 0 00.39-.456l.155.552a1.02 1.02 0 01-.478.538c-.226.127-.514.191-.862.191zm5.742-.051v-1.341l.133.155h-1.179c-.54 0-.965-.113-1.274-.34-.304-.23-.456-.561-.456-.993 0-.462.162-.813.486-1.054.329-.24.766-.36 1.31-.36h1.805v3.933h-.825zm-2.828 0l1.06-1.503h.943l-1.016 1.503h-.987zm2.828-1.636v-1.767l.133.243h-1.083c-.285 0-.506.054-.663.162-.152.103-.228.272-.228.508 0 .442.287.663.862.663h1.112l-.133.191zm2.063 1.636v-3.933h1.923c.476 0 .85.088 1.12.265a.843.843 0 01.412.75c0 .32-.128.57-.383.752-.256.177-.594.265-1.017.265l.11-.228c.477 0 .83.088 1.061.265.236.172.354.425.354.759 0 .348-.13.62-.39.817-.26.192-.656.288-1.186.288h-2.004zm.877-.67h1.053c.25 0 .44-.04.567-.119a.419.419 0 00.192-.375c0-.177-.06-.307-.177-.39-.118-.084-.302-.126-.552-.126h-1.083v1.01zm0-1.621h.965c.235 0 .412-.042.53-.125a.428.428 0 00.184-.369c0-.162-.061-.282-.184-.36-.118-.079-.295-.118-.53-.118h-.965v.972zm5.436 2.342c-.402 0-.76-.086-1.075-.258a1.98 1.98 0 01-.744-.721 1.987 1.987 0 01-.272-1.039c0-.393.09-.739.272-1.038a1.93 1.93 0 01.744-.715 2.203 2.203 0 011.075-.258c.408 0 .769.086 1.083.258.32.172.567.408.744.707.182.3.272.648.272 1.046 0 .388-.09.734-.272 1.038a1.912 1.912 0 01-.744.722 2.22 2.22 0 01-1.083.258zm0-.788c.226 0 .427-.05.604-.147.177-.099.314-.24.413-.427a1.34 1.34 0 00.154-.656c0-.255-.051-.474-.154-.655a1.018 1.018 0 00-.413-.428 1.207 1.207 0 00-.596-.147c-.226 0-.427.05-.604.147a1.08 1.08 0 00-.413.428c-.103.181-.154.4-.154.655 0 .25.051.469.154.656.103.186.24.328.413.427.177.098.375.147.596.147zm5.83.736l-1.422-1.885.751-.464 1.753 2.35H83.04zm-2.821 0v-3.932h.92v3.933h-.92zm.648-1.576v-.766h1.333v.766h-1.333zm1.59-.28l-.86-.103 1.443-1.973h.987l-1.57 2.077zm6.103 1.908a2.2 2.2 0 01-1.075-.258 1.98 1.98 0 01-.744-.721 1.987 1.987 0 01-.273-1.039c0-.393.091-.739.273-1.038a1.93 1.93 0 01.744-.715 2.203 2.203 0 011.075-.258c.408 0 .769.086 1.083.258.319.172.567.408.744.707.181.3.272.648.272 1.046 0 .388-.09.734-.272 1.038a1.912 1.912 0 01-.744.722 2.22 2.22 0 01-1.083.258zm0-.788c.226 0 .427-.05.604-.147.177-.099.314-.24.412-.427a1.34 1.34 0 00.155-.656c0-.255-.052-.474-.155-.655a1.018 1.018 0 00-.412-.428 1.207 1.207 0 00-.597-.147c-.225 0-.427.05-.603.147-.172.099-.31.24-.413.428-.103.181-.155.4-.155.655 0 .25.052.469.155.656.103.186.24.328.413.427.176.098.375.147.596.147zm5.661.31v-2.726h-1.51l-.022.634c-.01.226-.024.444-.044.655-.02.206-.052.398-.096.575a1.227 1.227 0 01-.191.427.573.573 0 01-.332.22l-.913-.14a.464.464 0 00.354-.14.96.96 0 00.213-.397c.054-.172.093-.366.118-.582a9.73 9.73 0 00.052-.685l.051-1.347h3.24v3.505h-.92zm-3.248 1.303v-1.657h4.75v1.657h-.861v-.877h-3.035v.877h-.854zm7.326-.825c-.403 0-.761-.086-1.076-.258a1.98 1.98 0 01-.743-.721 1.987 1.987 0 01-.273-1.039c0-.393.09-.739.272-1.038a1.93 1.93 0 01.744-.715 2.204 2.204 0 011.076-.258c.407 0 .768.086 1.082.258.32.172.567.408.744.707.182.3.273.648.273 1.046 0 .388-.091.734-.273 1.038a1.91 1.91 0 01-.744.722 2.22 2.22 0 01-1.082.258zm0-.788c.225 0 .427-.05.604-.147.176-.099.314-.24.412-.427a1.34 1.34 0 00.155-.656c0-.255-.052-.474-.155-.655a1.019 1.019 0 00-.412-.428 1.207 1.207 0 00-.597-.147c-.226 0-.427.05-.604.147a1.08 1.08 0 00-.412.428c-.103.181-.155.4-.155.655 0 .25.052.469.155.656.103.186.24.328.412.427.177.098.376.147.597.147zm4.886.81a2.41 2.41 0 01-.869-.147 1.753 1.753 0 01-.663-.45 2.125 2.125 0 01-.419-.78 3.745 3.745 0 01-.148-1.12c0-.314.027-.601.081-.861a2.67 2.67 0 01.243-.7 2.21 2.21 0 01.405-.56c.167-.162.361-.297.582-.405a3.23 3.23 0 01.751-.25l1.827-.39.133.824-1.658.339c-.093.02-.206.05-.338.088a1.868 1.868 0 00-.398.163 1.32 1.32 0 00-.376.301 1.524 1.524 0 00-.28.501 2.4 2.4 0 00-.103.759c0 .093.003.164.008.213.009.045.017.094.022.148.01.049.014.123.014.22l-.346-.36a1.93 1.93 0 01.405-.641 1.75 1.75 0 01.612-.412 1.97 1.97 0 01.766-.148c.368 0 .694.076.979.229.285.152.508.365.67.64.162.275.244.587.244.936 0 .363-.089.685-.266.965-.176.28-.427.5-.751.662-.319.157-.695.236-1.127.236zm.074-.744c.221 0 .415-.046.582-.14.172-.098.304-.23.397-.397.099-.167.148-.354.148-.56a.964.964 0 00-.148-.538 1.008 1.008 0 00-.397-.375 1.205 1.205 0 00-.597-.14c-.221 0-.42.044-.596.132a1.01 1.01 0 00-.405.369.988.988 0 00-.14.53c0 .206.049.395.147.567.098.172.233.307.405.405.177.098.378.147.604.147zm5.141.722a1.79 1.79 0 01-.877-.22 1.606 1.606 0 01-.626-.664c-.152-.3-.228-.677-.228-1.134 0-.462.074-.84.221-1.134a1.51 1.51 0 01.619-.656c.26-.147.557-.22.891-.22.388 0 .729.083 1.023.25.3.167.536.4.707.7.177.299.266.652.266 1.06 0 .407-.089.764-.266 1.068-.171.3-.407.533-.707.7-.294.166-.635.25-1.023.25zm-2.18 1.377v-5.361h.876v.928l-.029 1.045.073 1.046v2.342h-.92zm2.077-2.165c.221 0 .417-.05.589-.147a1.07 1.07 0 00.42-.427 1.34 1.34 0 00.154-.656c0-.255-.051-.474-.154-.655a1.07 1.07 0 00-.42-.428 1.166 1.166 0 00-.589-.147c-.221 0-.42.05-.597.147-.177.099-.317.24-.42.428-.103.181-.154.4-.154.655 0 .25.051.469.154.656.103.186.243.328.42.427.177.098.376.147.597.147zm5.382.736v-1.34l.133.155h-1.179c-.54 0-.964-.113-1.274-.34-.304-.23-.456-.561-.456-.993 0-.462.162-.813.486-1.054.329-.24.766-.36 1.311-.36h1.804v3.933h-.825zm-2.828 0l1.061-1.502h.942l-1.016 1.503h-.987zm2.828-1.635v-1.767l.133.243h-1.083c-.285 0-.506.054-.663.162-.152.103-.228.272-.228.508 0 .442.287.663.862.663h1.112l-.133.191zm2.063 1.636v-3.933h.921v1.524h1.171v.832h-1.171v1.577h-.921zm3.595.051c-.393 0-.744-.086-1.054-.258a1.953 1.953 0 01-.721-.721 2.028 2.028 0 01-.266-1.039c0-.393.089-.741.266-1.046.176-.304.417-.54.721-.707.31-.172.661-.258 1.054-.258.397 0 .748.086 1.053.258.309.167.552.403.729.707.177.305.265.653.265 1.046 0 .388-.088.736-.265 1.046-.177.304-.42.542-.729.714a2.108 2.108 0 01-1.053.258zm0-.78a1.102 1.102 0 00.987-.582c.098-.182.147-.4.147-.656a1.36 1.36 0 00-.147-.655 1.038 1.038 0 00-.406-.428 1.11 1.11 0 00-.574-.147c-.216 0-.41.05-.582.147a1.03 1.03 0 00-.405.428c-.098.181-.147.4-.147.655s.049.474.147.656a1.092 1.092 0 00.98.581zm3.624.729v-3.374l.214.221h-1.598v-.78h3.682v.78h-1.591l.214-.22v3.373h-.921zm3.01-1.71l-.177-3.446h1.09l-.184 3.447h-.729zm.368 1.761a.58.58 0 01-.596-.575c0-.157.056-.29.169-.397a.58.58 0 01.427-.17c.172 0 .312.057.42.17a.54.54 0 01.162.398.565.565 0 01-.582.574z" fill="#7D7D7D"/><path d="M26.983 26.18l3.514 3.315 8.008-7.762a1.708 1.708 0 012.297-.038l.166.15a1.43 1.43 0 01.042 2.12L30.497 34.159l-6.055-5.625a1.43 1.43 0 01-.025-2.104l.242-.234a1.707 1.707 0 012.324-.016z" fill="#41B619"/><defs><filter id="filter0_d_118_3314" x=".492" y=".095" width="64.445" height="64.444" filterUnits="userSpaceOnUse" color-interpolation-filters="sRGB"><feFlood flood-opacity="0" result="BackgroundImageFix"/><feColorMatrix in="SourceAlpha" values="0 0 0 0 0 0 0 0 0 0 0 0 0 0 0 0 0 0 127 0" result="hardAlpha"/><feOffset dy="4.603"/><feGaussianBlur stdDeviation="5.754"/><feComposite in2="hardAlpha" operator="out"/><feColorMatrix values="0 0 0 0 0.168437 0 0 0 0 0.171062 0 0 0 0 0.175 0 0 0 0.1 0"/><feBlend in2="BackgroundImageFix" result="effect1_dropShadow_118_3314"/><feBlend in="SourceGraphic" in2="effect1_dropShadow_118_3314" result="shape"/></filter><filter id="filter1_d_118_3314" x="4.635" y="4.238" width="56.158" height="56.159" filterUnits="userSpaceOnUse" color-interpolation-filters="sRGB"><feFlood flood-opacity="0" result="BackgroundImageFix"/><feColorMatrix in="SourceAlpha" values="0 0 0 0 0 0 0 0 0 0 0 0 0 0 0 0 0 0 127 0" result="hardAlpha"/><feOffset dy="4.603"/><feGaussianBlur stdDeviation="5.754"/><feComposite in2="hardAlpha" operator="out"/><feColorMatrix values="0 0 0 0 0.168437 0 0 0 0 0.171062 0 0 0 0 0.175 0 0 0 0.1 0"/><feBlend in2="BackgroundImageFix" result="effect1_dropShadow_118_3314"/><feBlend in="SourceGraphic" in2="effect1_dropShadow_118_3314" result="shape"/></filter></defs></svg>