<svg width="169" height="36" fill="none" xmlns="http://www.w3.org/2000/svg"><path d="M31.941 17.022c-1.027 0-1.92-.142-2.677-.426a6.095 6.095 0 01-1.967-1.177 9.845 9.845 0 01-1.44-1.723l3.265-1.947c.176.338.392.642.65.912.27.27.587.48.952.63.365.148.784.222 1.258.222.554 0 1.027-.088 1.42-.264a2.888 2.888 0 001.013-.77c.27-.338.473-.723.609-1.156.135-.446.216-.92.243-1.42l1.541 1.014h-5.942V8.18h5.861l-1.48.993a4.8 4.8 0 00-.284-1.298 2.838 2.838 0 00-.65-1.014 2.736 2.736 0 00-.993-.69c-.392-.161-.845-.243-1.359-.243-.473 0-.899.082-1.277.244a2.677 2.677 0 00-.974.649 3.43 3.43 0 00-.629.933l-3.102-2.21a8.175 8.175 0 012.372-2.252c.947-.581 2.17-.872 3.671-.872 1.15 0 2.17.203 3.062.608.906.393 1.67.933 2.292 1.623a6.98 6.98 0 011.42 2.332c.324.879.486 1.805.486 2.778a7.73 7.73 0 01-.507 2.799 6.921 6.921 0 01-1.48 2.332 6.78 6.78 0 01-2.312 1.562c-.906.378-1.92.568-3.042.568zm9.917-.122V2.5h3.934v5.293h.811L50.314 2.5h4.34l-5.07 6.956 5.537 7.443h-4.786l-3.894-5.516h-.65V16.9h-3.933zm21.222.122c-1.096 0-2.09-.203-2.982-.609a7.544 7.544 0 01-2.312-1.663 7.945 7.945 0 01-1.48-2.352 7.509 7.509 0 01-.507-2.718c0-.96.182-1.872.547-2.738a7.547 7.547 0 011.521-2.311A7.237 7.237 0 0160.2 3.008c.906-.392 1.893-.588 2.961-.588 1.095 0 2.09.21 2.981.629a6.88 6.88 0 012.292 1.663 7.554 7.554 0 011.46 2.372 7.05 7.05 0 01-.02 5.395 7.315 7.315 0 01-1.521 2.332 7.43 7.43 0 01-2.312 1.622c-.892.393-1.88.589-2.96.589zM59.813 9.72c0 .486.068.96.203 1.42.135.446.338.851.608 1.216.27.352.609.636 1.014.852.42.203.913.304 1.48.304.569 0 1.062-.108 1.481-.324.42-.217.757-.507 1.014-.872.27-.379.467-.791.588-1.237a4.935 4.935 0 000-2.8 3.705 3.705 0 00-.608-1.196 2.763 2.763 0 00-1.034-.851c-.42-.203-.906-.305-1.46-.305-.568 0-1.062.109-1.481.325a3.005 3.005 0 00-1.014.872 3.67 3.67 0 00-.608 1.217 5.22 5.22 0 00-.183 1.379z" fill="#41B619"/><path d="M73.932 16.9V2.5h1.825v11.864L84.092 2.5h1.704v14.4H83.97V5.26L75.737 16.9h-1.805zm15.406 0V2.5h11.113v14.4h-1.825V4.123h-7.463V16.9h-1.825zm20.397.101c-1.014 0-1.934-.203-2.758-.608a6.896 6.896 0 01-2.15-1.643 7.907 7.907 0 01-1.379-2.352 7.718 7.718 0 01-.487-2.698c0-.96.169-1.872.507-2.737a7.78 7.78 0 011.44-2.333 6.869 6.869 0 012.17-1.622 6.03 6.03 0 012.697-.608c1.014 0 1.934.21 2.758.628.825.42 1.535.98 2.13 1.684a7.928 7.928 0 011.379 2.352c.324.865.486 1.75.486 2.657 0 .96-.169 1.879-.507 2.758a7.576 7.576 0 01-1.439 2.332 6.785 6.785 0 01-2.15 1.602 6.203 6.203 0 01-2.697.588zm-4.928-7.3c0 .73.114 1.44.344 2.129a6.078 6.078 0 001.014 1.805c.433.527.953.946 1.562 1.257a4.388 4.388 0 002.028.467c.771 0 1.46-.163 2.068-.487a4.758 4.758 0 001.542-1.298c.432-.54.757-1.15.973-1.825a6.32 6.32 0 00.345-2.049c0-.73-.122-1.433-.365-2.109a5.519 5.519 0 00-1.014-1.805 4.525 4.525 0 00-1.562-1.257 4.223 4.223 0 00-1.987-.466c-.771 0-1.46.162-2.069.486a4.742 4.742 0 00-1.561 1.278 6.235 6.235 0 00-.974 1.825 6.2 6.2 0 00-.344 2.048zm24.185-5.578h-4.968V16.9h-1.826V4.123h-4.968V2.501h11.762v1.622zm11.849 11.154V16.9h-9.775V2.5h9.592v1.622h-7.767v4.665h6.753v1.52h-6.753v4.97h7.95zm2.504 1.623V2.5h1.825v6.226h1.927l4.745-6.226h2.109l-5.354 6.976 5.719 7.423h-2.23l-4.949-6.51h-1.967v6.51h-1.825zm17.59-14.399h1.541l5.882 14.399h-1.947l-1.704-4.218h-6.043l-1.683 4.218h-1.947l5.901-14.4zm3.367 8.761l-2.596-6.652-2.677 6.652h5.273z" fill="#464646"/><path d="M28.788 32.211c-.413 0-.788-.101-1.126-.304a2.301 2.301 0 01-.801-.79v.993h-.791v-7.402h.892v3.163c.223-.344.497-.621.822-.831.324-.21.703-.314 1.135-.314.365 0 .693.077.984.233.29.149.537.355.74.618.21.257.369.551.477.882.115.325.172.666.172 1.025 0 .371-.064.723-.193 1.054a2.74 2.74 0 01-.527.872 2.54 2.54 0 01-.801.588 2.255 2.255 0 01-.983.213zm-.224-.77c.264 0 .507-.054.73-.163.223-.108.416-.253.578-.436.163-.182.288-.392.376-.628a2.188 2.188 0 00-.091-1.703 1.79 1.79 0 00-.609-.73 1.48 1.48 0 00-.902-.285c-.25 0-.484.058-.7.173a2.077 2.077 0 00-.578.456 2.648 2.648 0 00-.406.608v1.531c.034.17.105.325.213.467.108.142.24.267.396.375a2.3 2.3 0 00.486.243c.176.061.345.092.507.092zm3.889 2.109l.263.02c.088.014.156.02.203.02a.407.407 0 00.284-.111c.081-.075.17-.22.264-.436.101-.21.23-.52.385-.933l-2.24-5.293h.942l1.785 4.39 1.612-4.39h.882l-2.575 6.682a1.43 1.43 0 01-.274.436 1.177 1.177 0 01-.446.335 1.615 1.615 0 01-.66.121c-.06 0-.124-.003-.192-.01a2.454 2.454 0 01-.233-.04v-.791zm7.559-1.44v-5.293h.892v2.19h2.759v-2.19h.892v5.293h-.892v-2.312h-2.758v2.312h-.893zm8.324.101c-.399 0-.764-.07-1.095-.213a2.811 2.811 0 01-.852-.598 2.917 2.917 0 01-.558-.882 2.891 2.891 0 01-.192-1.055c0-.5.114-.956.344-1.369.23-.412.548-.743.954-.993.412-.25.882-.375 1.409-.375.534 0 .997.128 1.39.385.398.25.706.581.922.994a2.692 2.692 0 01.324 1.52.76.76 0 01-.01.143h-4.39c.027.344.121.652.283.922.17.264.386.473.65.629.263.149.547.223.851.223.325 0 .629-.081.913-.243.29-.162.49-.375.598-.64l.77.214a2.013 2.013 0 01-.516.69c-.224.202-.49.361-.801.476a2.788 2.788 0 01-.994.172zM46.55 29.15h3.61a1.944 1.944 0 00-.294-.913 1.832 1.832 0 00-.649-.618 1.745 1.745 0 00-.872-.223c-.311 0-.598.074-.862.223-.264.149-.48.355-.649.618a2.014 2.014 0 00-.284.913zm8.284 3.061a2.1 2.1 0 01-1.156-.324 2.446 2.446 0 01-.801-.822v3.205h-.893v-7.453h.791v.994c.21-.325.484-.585.822-.781a2.11 2.11 0 011.105-.304c.365 0 .7.074 1.004.223.304.148.568.351.79.608.224.257.396.551.518.882.128.325.192.666.192 1.024 0 .5-.1.96-.304 1.38a2.475 2.475 0 01-.831 1.003 2.15 2.15 0 01-1.237.365zm-.274-.77c.264 0 .5-.054.71-.163a1.74 1.74 0 00.547-.446 2.04 2.04 0 00.355-.639c.081-.236.122-.48.122-.73a2 2 0 00-.142-.75 1.88 1.88 0 00-.385-.629 1.713 1.713 0 00-.578-.425 1.564 1.564 0 00-1.217-.072 1.9 1.9 0 00-.487.264 1.746 1.746 0 00-.395.375c-.109.142-.18.294-.213.457v1.51c.101.23.236.44.405.63.17.188.365.34.588.455.224.109.453.163.69.163zm3.732.669v-5.283h.892v4.086l2.961-4.096h.811v5.293h-.892v-4.005l-2.92 4.005h-.852zm8.027.091c-.325 0-.639-.05-.943-.152a2.63 2.63 0 01-.801-.436 2.044 2.044 0 01-.558-.69l.72-.334c.162.304.379.53.649.68.277.141.568.212.872.212.325 0 .615-.078.872-.233a2.02 2.02 0 00.649-.639 1.95 1.95 0 00.294-.882h-2.281v-.608h2.27a1.934 1.934 0 00-.283-.801 1.72 1.72 0 00-.608-.619c-.25-.162-.551-.243-.903-.243-.29 0-.568.064-.831.192-.257.129-.47.345-.64.65l-.689-.356c.196-.365.48-.659.852-.882.372-.223.818-.334 1.339-.334.432 0 .814.077 1.145.233.338.149.619.355.842.618.23.257.402.548.517.872.122.325.183.656.183.994 0 .352-.061.693-.183 1.024-.121.325-.3.619-.537.882a2.59 2.59 0 01-.842.619 2.528 2.528 0 01-1.105.233zm3.281-.051v-.8a.837.837 0 00.466-.132c.142-.095.267-.25.375-.467.108-.223.193-.527.254-.912.067-.392.111-.89.132-1.491l.06-1.531h3.6v5.293h-.892v-4.502h-1.917l-.02.821c-.027.723-.088 1.325-.183 1.805-.094.48-.226.858-.395 1.136a1.519 1.519 0 01-.629.598 1.883 1.883 0 01-.851.183zm7.616-.04v-4.502h-1.825v-.791h4.542v.79h-1.825v4.503h-.892z" fill="#BFBFBF"/><path d="M14.839 1.694c-2.728.211-4.894.781-6.986 1.832-1.331.671-2.276 1.31-3.444 2.344-1.588 1.4-2.443 3.066-2.622 5.101-.142 1.576.318 3.31 1.246 4.702.301.452.83 1.08.875 1.03.016-.016.106-.252.204-.52.346-.97.936-2.162 1.44-2.928.95-1.425 2.724-3.143 4.157-4.014.334-.203.998-.541 1.022-.52.008.007-.346.557-.79 1.224-1.477 2.223-1.714 2.622-2.817 4.751-.578 1.12-1.547 3.22-1.547 3.359 0 .036.468.277.875.44a7.389 7.389 0 002.89.561c2.33 0 4.198-.9 5.74-2.772.884-1.07 1.454-2.223 1.686-3.4.11-.557.16-1.09.228-2.56.07-1.437.139-2.158.285-2.996.273-1.547.86-3.359 1.596-4.922.147-.322.204-.476.171-.497-.049-.028-.191-.053-.953-.142-.468-.057-2.792-.11-3.256-.073z" fill="#41B619"/></svg>