<svg width="37" height="49" fill="none" xmlns="http://www.w3.org/2000/svg"><path d="M0 14v14h7v-2.295l-2.335-.012-2.341-.017-.017-4.09-.012-4.086h7.057v1.147h2.296v-3.5H2.352V2.353h12.796v3.443H14v2.352h3.5V2.295l4.091.012 4.085.017.017 2.335L25.705 7h-3.5v2.352h3.5v5.796H17.5v-3.5l-1.159.011-1.165.017-.017 7.012-.011 7.017H10.5V28h7V17.5H28V0H0v14z" fill="#41B619"/><g clip-path="url(#clip0_244_1013)" fill="#7D7D7D"><path d="M22.436 26.094a.644.644 0 00-.26.265c-.086.171-.09.26-.09 2.336 0 2.076.004 2.165.09 2.336a.71.71 0 00.584.36.71.71 0 00.584-.36c.085-.17.09-.26.09-2.336 0-2.075-.005-2.165-.09-2.336-.167-.328-.57-.444-.908-.265zm-5.732 2.376a.679.679 0 00-.256.872c.04.081.75.822 1.586 1.653 1.63 1.631 1.613 1.613 2.017 1.55.382-.063.61-.517.458-.916-.058-.162-2.978-3.09-3.167-3.18a.707.707 0 00-.638.022zm11.469-.017c-.153.076-2.88 2.771-3.082 3.045-.404.544.157 1.254.8 1.011.162-.058 3.09-2.978 3.18-3.167.274-.575-.337-1.181-.898-.89zM14.35 34.18a.72.72 0 00-.35.58c0 .224.157.48.36.584.17.085.26.09 2.335.09 2.076 0 2.165-.005 2.336-.09a.71.71 0 00.36-.584.709.709 0 00-.36-.584c-.17-.086-.256-.09-2.345-.09-2.07.004-2.178.009-2.336.094zm8.244.086a.7.7 0 00-.396.503c-.022.094.463 1.603 1.932 6.006 1.864 5.602 1.968 5.889 2.111 6.02a.737.737 0 00.31.161c.337.067.396.027 1.487-1.06l1.033-1.029 2.022 2.022c2.156 2.16 2.156 2.156 2.524 2.093.149-.031.36-.22 1.734-1.59 1.667-1.662 1.694-1.698 1.631-2.062-.031-.153-.26-.4-2.07-2.215l-2.04-2.044 1.024-1.033c.867-.871 1.033-1.06 1.06-1.2a.662.662 0 00-.162-.597c-.125-.144-.449-.256-6.006-2.107-3.23-1.078-5.902-1.958-5.938-1.958a.965.965 0 00-.256.09zm-3.091 2.821c-.305.229-3.023 2.987-3.073 3.122a.675.675 0 00.88.88c.163-.058 3.091-2.978 3.181-3.167.135-.283.068-.597-.175-.822-.09-.085-.18-.117-.377-.13-.23-.014-.274-.005-.436.117z"/></g><defs><clipPath id="clip0_244_1013"><path fill="#fff" transform="translate(14 26)" d="M0 0h23v23H0z"/></clipPath></defs></svg>